<svg xmlns="http://www.w3.org/2000/svg" viewBox="0 0 148.41 142.64">
	<defs>
		<style>.cls-1{fill:#fff;}</style>
	</defs>
	<title>swollr-logo</title>
	<g id="Layer_2" data-name="Layer 2">
		<g id="Capa_1" data-name="Capa 1">
			<g id="logo">
				<path id="shoulder" class="cls-1" d="M27.3,142.64S44,132.43,50.61,112.85s20-25.09,5.51-47.32S23.82,50.9,16,50.33,2.91,47.48,1.77,55.84s-6.08,31.17,8,54S23.19,141.83,27.3,142.64Z"/>
				<path id="tricep" class="cls-1" d="M20.89,86.32c-4.55,8.81,2.09,31.05,34.89,41.8s79.84-3.63,83.43-6.47,2.26-16-13-21S95.78,85.74,77.67,81.89,29.56,69.55,20.89,86.32Z"/>
				<path id="forearm" class="cls-1" d="M113,109c1.95,5.13,9,16.08,23.66,13.24s13.88-40.1,7.06-58.12-9.93-25.67-9.79-31.56,2.23-15.78-4.22-20.83S110.89-1.91,105.87.38,102.49,6.53,100,6.2s-7.37,2.2-6.49,6.62,4.46,19.32,10.2,20,7.74-.46,11.62,5,3.84,4.49,3.06,7.82S105,88,113,109Z"/>
				<ellipse id="bicep" class="cls-1" cx="68.45" cy="94.91" rx="29.08" ry="26.61"/>
			</g>
		</g>
	</g>
</svg>